# xmcd
#
# Track frame offsets:
#	150
#	17733
#	38606
#	57590
#	74256
#	98724
#	118487
#	137030
#	157211
#	174948
#	193804
#	208602
#	224668
#	243512
#	260106
#
# Disc length: 3710 seconds
#
# Revision: 5
# Processed by: cddbd v1.5.2PL0 Copyright (c) Steve Scherf et al.
# Submitted via: EasyCDDAExtractor 15.3.0.1
#
DISCID=ed0e7c0f
DTITLE=Ednita Nazario - 30 Del Recuerdo - CD 2
DYEAR=2006
DGENRE=Latin
TTITLE0=Un Corazon Hecho Pedazos
TTITLE1=Y Te Vas
TTITLE2=Te Sigo Esperando
TTITLE3=Lloviendo Flores
TTITLE4=Un Hombre Para Mi
TTITLE5=Tanto Nos Amamos
TTITLE6=Que No Acabe El Amor
TTITLE7=Gata Sin Luna
TTITLE8=Tres Deseos
TTITLE9=Mas Que Un Amigo
TTITLE10=Viene Y Va
TTITLE11=Te Quedas En Mi
TTITLE12=Despues De Tanto
TTITLE13=Corazon
TTITLE14=Por Ti Me Casare
EXTD=
EXTT0=
EXTT1=
EXTT2=
EXTT3=
EXTT4=
EXTT5=
EXTT6=
EXTT7=
EXTT8=
EXTT9=
EXTT10=
EXTT11=
EXTT12=
EXTT13=
EXTT14=
PLAYORDER=
